<?xml version="1.0" encoding="utf-8"?>
<!-- Generator: Adobe Illustrator 24.3.0, SVG Export Plug-In . SVG Version: 6.00 Build 0)  -->
<svg version="1.1" id="Layer_1" xmlns="http://www.w3.org/2000/svg" xmlns:xlink="http://www.w3.org/1999/xlink" x="0px" y="0px"
	 viewBox="0 0 303.58 36.24" style="enable-background:new 0 0 303.58 36.24;" xml:space="preserve">
<style type="text/css">
	.st0{fill:#A1A1A1;}
</style>
<g>
	<path class="st0" d="M298.2,7.73h-12.56c-3.28,0-6.46,1.36-8.73,3.73l-7.59,7.93c-1.27,1.32-2.5,1.47-4.33,1.47l-7.73,0V7.67
		l-8.47,0.06c-3.28,0-6.3,1.85-8.57,4.22l-7.14,7.44c-1.27,1.32-3.08,1.47-4.91,1.47h-9.78L218.4,7.69h-3.05h-4.77
		c-3.28,0-6.44,1.35-8.7,3.72l-7.65,7.98c-1.27,1.32-3.08,1.47-4.91,1.47h-9.75v-7.79c0-2.96-2.41-5.37-5.38-5.37h-11.85
		c-3.28,0-6.47,1.36-8.74,3.73l-7.21,7.36c-1.27,1.32-3.05,2.08-4.88,2.08h-13.39c-1.29,0-2.35-1.05-2.35-2.35V0h-3.06v19.13
		c0,4.24,3.45,7.69,7.69,7.69h6.82c3.28,0,6.5-1.36,8.77-3.73l7.7-7.97c1.27-1.32,3.05-2.08,4.88-2.08l17.94,0.03v7.79h-22.7v5.96
		h25.32h7.05c3.28,0,6.47-1.36,8.74-3.73l7.64-7.98c1.27-1.32,3.04-2.08,4.87-2.08h7.91l0.01,13.78h2.63h7.05
		c3.28,0,6.47-1.36,8.74-3.73l6.99-7.29c1.27-1.32,3.04-2.08,4.87-2.08h8.57v13.1h1.1v0h5.95c3.28,0,6.47-1.36,8.74-3.73l6.99-7.29
		c1.27-1.32,3.05-2.08,4.88-2.08h18.67l-0.03,7.13h-22.67v5.96h20.36c2.96,0,5.37-2.41,5.37-5.37v-8.34
		C303.58,10.15,301.16,7.73,298.2,7.73z"/>
	<path class="st0" d="M67.79,18.78c-1.27,1.32-3.05,2.08-4.88,2.08H43.66v5.96h15.47c3.28,0,6.47-1.36,8.74-3.73L78.14,12.4
		l-2.2-2.13L67.79,18.78z"/>
	<path class="st0" d="M64.95,13.04V7.69h-15.5c-3.3,0-6.4,1.34-8.69,3.72l-7.06,7.37c-1.28,1.33-3.04,2.08-4.88,2.08H5.48
		c-1.34,0-2.42-1.08-2.42-2.42V7.69H0v11.36c0,4.29,3.48,7.76,7.76,7.76h17.29c3.3,0,6.46-1.35,8.74-3.73l7.65-7.98
		c1.27-1.33,3.03-2.08,4.87-2.08H64.95z"/>
	<path class="st0" d="M115.71,19.04c0,1-0.81,1.82-1.82,1.82H87.84c-1,0-1.82-0.81-1.82-1.82V7.69h-3.05v11.97
		c0,3.95,3.21,7.16,7.16,7.16h21.46c3.95,0,7.16-3.21,7.16-7.16V0h-3.05V19.04z"/>
	<path class="st0" d="M233.01,1.77c0-0.98-0.79-1.77-1.77-1.77h-4.36v4.46h6.13V1.77z"/>
	<path class="st0" d="M78.14,1.77c0-0.98-0.79-1.77-1.77-1.77h-4.36v4.46h6.13V1.77z"/>
	<path class="st0" d="M252.74,31.75h-12.3v4.48h13.76v-3.02C254.2,32.41,253.55,31.75,252.74,31.75z"/>
	<path class="st0" d="M213.55,31.75h-11.64v4.48h13.44v-2.68C215.35,32.56,214.54,31.75,213.55,31.75z"/>
</g>
</svg>
